<?xml version="1.0" standalone="no"?>
<!DOCTYPE svg PUBLIC "-//W3C//DTD SVG 20010904//EN"
 "http://www.w3.org/TR/2001/REC-SVG-20010904/DTD/svg10.dtd">
<svg version="1.0" xmlns="http://www.w3.org/2000/svg"
 width="300.000000pt" height="300.000000pt" viewBox="0 0 300.000000 300.000000"
 preserveAspectRatio="xMidYMid meet">
<metadata>
Created by potrace 1.14, written by Peter Selinger 2001-2017
</metadata>
<g transform="translate(0.000000,300.000000) scale(0.100000,-0.100000)"
fill="#000000" stroke="none">
<path d="M740 2970 c0 -5 -6 -9 -12 -7 -7 1 -12 -4 -10 -11 1 -8 -2 -11 -6 -8
-10 6 -88 -29 -94 -41 -3 -9 -62 -43 -115 -68 -18 -8 -33 -20 -33 -26 0 -5 -4
-8 -10 -4 -5 3 -18 -3 -29 -14 -11 -11 -22 -17 -25 -13 -3 3 -6 0 -6 -7 0 -7
-4 -9 -10 -6 -6 3 -10 1 -10 -5 0 -6 -4 -9 -9 -6 -5 4 -11 3 -13 -2 -1 -4 -54
-37 -115 -73 -62 -37 -110 -69 -108 -73 3 -3 2 -4 -1 -1 -8 5 -64 -26 -64 -35
0 -5 161 -98 365 -211 28 -15 109 -60 180 -101 l131 -73 -1 -50 c-1 -27 -3
-53 -3 -57 -2 -8 -88 36 -207 106 -38 22 -72 41 -75 41 -3 0 -14 6 -25 13 -65
42 -371 209 -375 205 -2 -2 -5 -163 -5 -358 l-1 -353 144 -83 c80 -46 180
-104 223 -129 182 -104 276 -159 310 -179 l36 -21 27 21 c14 11 26 17 26 13 0
-4 8 0 18 8 9 8 127 81 262 163 135 81 261 157 280 170 19 12 48 29 63 39 l28
17 -3 406 -3 406 -37 23 c-21 13 -42 24 -48 24 -5 0 -10 5 -10 11 0 5 -4 7
-10 4 -5 -3 -10 -2 -10 2 0 5 -26 22 -57 38 -32 17 -60 33 -63 36 -9 11 -139
80 -144 77 -3 -2 -11 4 -18 13 -7 9 -42 32 -78 50 -36 19 -67 37 -70 40 -3 3
-25 16 -50 30 -25 13 -47 26 -50 29 -8 8 -67 40 -74 40 -3 0 -6 -4 -6 -10z"/>
<path d="M2194 2924 c-27 -14 -61 -34 -75 -45 -15 -10 -32 -19 -38 -19 -6 0
-11 -4 -11 -10 0 -5 -5 -10 -10 -10 -6 0 -66 -33 -133 -73 -67 -40 -170 -102
-229 -136 l-108 -63 0 -412 1 -411 291 -165 c161 -91 322 -182 359 -202 l66
-37 319 182 319 183 3 77 c2 42 0 77 -3 77 -4 0 -148 -84 -320 -186 l-314
-185 -173 97 c-95 53 -197 110 -227 127 -30 16 -84 47 -120 67 l-66 38 -3 344
-2 344 297 182 c164 99 307 187 317 195 19 14 17 16 -32 41 -28 14 -53 26 -55
26 -2 0 -26 -12 -53 -26z"/>
<path d="M2783 2551 c-83 -49 -157 -91 -165 -94 -7 -4 -80 -46 -163 -95 l-150
-88 -3 -76 -3 -77 326 192 325 191 0 68 c0 37 -3 68 -7 68 -5 -1 -76 -41 -160
-89z"/>
<path d="M1500 1625 c-14 -8 -32 -17 -40 -21 -8 -4 -17 -10 -20 -13 -3 -3 -26
-17 -52 -30 -26 -14 -44 -29 -42 -33 3 -5 2 -7 -3 -6 -16 4 -53 -14 -47 -23 3
-5 2 -8 -3 -7 -14 4 -113 -52 -113 -63 0 -6 -3 -8 -7 -6 -5 2 -35 -13 -68 -34
-33 -21 -84 -50 -112 -66 -29 -15 -53 -31 -53 -35 0 -4 -4 -8 -10 -8 -5 0 -29
-12 -53 -27 l-45 -26 1 -418 0 -418 181 -104 c99 -58 199 -115 221 -127 22
-12 81 -46 132 -76 51 -30 94 -54 97 -54 3 0 7 161 8 357 l3 357 45 27 c25 15
48 28 52 28 3 1 5 -170 5 -380 -1 -209 -1 -382 1 -384 2 -1 67 35 145 80 78
45 228 132 332 193 l190 110 0 408 -1 408 -46 25 c-26 14 -160 91 -299 171
-245 140 -369 210 -372 210 -1 0 -13 -7 -27 -15z"/>
</g>
</svg>
